<?xml version="1.0" encoding="UTF-8" standalone="no"?>
<!DOCTYPE svg PUBLIC "-//W3C//DTD SVG 1.1//EN"
 "http://www.w3.org/Graphics/SVG/1.1/DTD/svg11.dtd">
<!-- Generated by graphviz version 2.40.1 (20161225.0304)
 -->
<!-- Title: G Pages: 1 -->
<svg width="321pt" height="808pt"
 viewBox="0.00 0.00 320.98 807.80" xmlns="http://www.w3.org/2000/svg" xmlns:xlink="http://www.w3.org/1999/xlink">
<g id="graph0" class="graph" transform="scale(1 1) rotate(0) translate(4 803.8)">
<title>G</title>
<polygon fill="#ffffff" stroke="transparent" points="-4,4 -4,-803.8 316.9789,-803.8 316.9789,4 -4,4"/>
<g id="clust1" class="cluster">
<title>cluster_ranger</title>
<polygon fill="none" stroke="#000000" points="61.79,-659 61.79,-736.8 135.79,-736.8 135.79,-659 61.79,-659"/>
<text text-anchor="middle" x="98.79" y="-720.2" font-family="Times,serif" font-size="14.00" fill="#000000">ranger</text>
</g>
<g id="clust3" class="cluster">
<title>cluster_tarfs</title>
<polygon fill="none" stroke="#000000" points="151.79,-65 151.79,-254.2 225.79,-254.2 225.79,-65 151.79,-65"/>
<text text-anchor="middle" x="188.79" y="-237.6" font-family="Times,serif" font-size="14.00" fill="#000000">tarfs</text>
</g>
<g id="clust2" class="cluster">
<title>cluster_gsip</title>
<polygon fill="none" stroke="#000000" points="92.79,-377.8 92.79,-567 190.79,-567 190.79,-377.8 92.79,-377.8"/>
<text text-anchor="middle" x="141.79" y="-550.4" font-family="Times,serif" font-size="14.00" fill="#000000">gsip</text>
</g>
<!-- http -->
<g id="node1" class="node">
<title>http</title>
<polygon fill="none" stroke="#000000" points="191.3704,-799.8 .2096,-799.8 .2096,-763.8 197.3704,-763.8 197.3704,-793.8 191.3704,-799.8"/>
<polyline fill="none" stroke="#000000" points="191.3704,-799.8 191.3704,-793.8 "/>
<polyline fill="none" stroke="#000000" points="197.3704,-793.8 191.3704,-793.8 "/>
<text text-anchor="middle" x="98.79" y="-777.6" font-family="Times,serif" font-size="14.00" fill="#000000">https://example.com/input.tar.gz</text>
</g>
<!-- ranger_method -->
<g id="node2" class="node">
<title>ranger_method</title>
<polygon fill="none" stroke="#000000" points="69.4085,-667.5 69.4085,-703.5 128.1715,-703.5 128.1715,-667.5 69.4085,-667.5"/>
<text text-anchor="middle" x="98.79" y="-681.4" font-family="Times,serif" font-size="14.00" fill="#000000">ReadAt</text>
</g>
<!-- http&#45;&gt;ranger_method -->
<g id="edge1" class="edge">
<title>http&#45;&gt;ranger_method</title>
<path fill="none" stroke="#000000" stroke-width="2" d="M98.79,-763.6867C98.79,-758.7197 98.79,-753.0426 98.79,-747.0659"/>
<polygon fill="#000000" stroke="#000000" stroke-width="2" points="102.2901,-746.7969 98.79,-736.797 95.2901,-746.797 102.2901,-746.7969"/>
</g>
<!-- ReadSeekerIn -->
<g id="node3" class="node">
<title>ReadSeekerIn</title>
<ellipse fill="none" stroke="#000000" cx="141.79" cy="-612" rx="114.5851" ry="18"/>
<text text-anchor="middle" x="141.79" y="-607.8" font-family="Times,serif" font-size="14.00" fill="#000000">io.ReaderAt (Compressed)</text>
</g>
<!-- ranger_method&#45;&gt;ReadSeekerIn -->
<g id="edge2" class="edge">
<title>ranger_method&#45;&gt;ReadSeekerIn</title>
<path fill="none" stroke="#000000" stroke-width="2" d="M109.4192,-667.3315C114.4702,-658.6978 120.6074,-648.2074 126.1744,-638.6917"/>
<polygon fill="#000000" stroke="#000000" stroke-width="2" points="129.2543,-640.3584 131.2831,-629.9596 123.2124,-636.8236 129.2543,-640.3584"/>
</g>
<!-- checkpoints -->
<g id="node7" class="node">
<title>checkpoints</title>
<path fill="none" stroke="#000000" d="M183.1597,-530.9273C183.1597,-532.7331 164.6171,-534.2 141.79,-534.2 118.9629,-534.2 100.4203,-532.7331 100.4203,-530.9273 100.4203,-530.9273 100.4203,-501.4727 100.4203,-501.4727 100.4203,-499.6669 118.9629,-498.2 141.79,-498.2 164.6171,-498.2 183.1597,-499.6669 183.1597,-501.4727 183.1597,-501.4727 183.1597,-530.9273 183.1597,-530.9273"/>
<path fill="none" stroke="#000000" d="M183.1597,-530.9273C183.1597,-529.1214 164.6171,-527.6545 141.79,-527.6545 118.9629,-527.6545 100.4203,-529.1214 100.4203,-530.9273"/>
<text text-anchor="middle" x="141.79" y="-512" font-family="Times,serif" font-size="14.00" fill="#000000">checkpoints</text>
</g>
<!-- ReadSeekerIn&#45;&gt;checkpoints -->
<g id="edge5" class="edge">
<title>ReadSeekerIn&#45;&gt;checkpoints</title>
<path fill="none" stroke="#000000" stroke-width="2" d="M141.79,-593.9808C141.79,-589 141.79,-583.3015 141.79,-577.3034"/>
<polygon fill="#000000" stroke="#000000" stroke-width="2" points="145.2901,-576.9999 141.79,-567 138.2901,-577 145.2901,-576.9999"/>
</g>
<!-- targz -->
<g id="node4" class="node">
<title>targz</title>
<polygon fill="none" stroke="#000000" points="219.552,-703.5 146.028,-703.5 146.028,-667.5 225.552,-667.5 225.552,-697.5 219.552,-703.5"/>
<polyline fill="none" stroke="#000000" points="219.552,-703.5 219.552,-697.5 "/>
<polyline fill="none" stroke="#000000" points="225.552,-697.5 219.552,-697.5 "/>
<text text-anchor="middle" x="185.79" y="-681.3" font-family="Times,serif" font-size="14.00" fill="#000000">input.tar.gz</text>
</g>
<!-- targz&#45;&gt;ReadSeekerIn -->
<g id="edge4" class="edge">
<title>targz&#45;&gt;ReadSeekerIn</title>
<path fill="none" stroke="#000000" stroke-width="2" d="M174.9136,-667.3315C169.7452,-658.6978 163.4652,-648.2074 157.7687,-638.6917"/>
<polygon fill="#000000" stroke="#000000" stroke-width="2" points="160.6807,-636.7419 152.5413,-629.9596 154.6747,-640.3374 160.6807,-636.7419"/>
</g>
<!-- tar -->
<g id="node5" class="node">
<title>tar</title>
<polygon fill="none" stroke="#000000" points="256.337,-441.5 199.243,-441.5 199.243,-405.5 262.337,-405.5 262.337,-435.5 256.337,-441.5"/>
<polyline fill="none" stroke="#000000" points="256.337,-441.5 256.337,-435.5 "/>
<polyline fill="none" stroke="#000000" points="262.337,-435.5 256.337,-435.5 "/>
<text text-anchor="middle" x="230.79" y="-419.3" font-family="Times,serif" font-size="14.00" fill="#000000">input.tar</text>
</g>
<!-- ReadSeekerOut -->
<g id="node6" class="node">
<title>ReadSeekerOut</title>
<ellipse fill="none" stroke="#000000" cx="188.79" cy="-315" rx="124.378" ry="18"/>
<text text-anchor="middle" x="188.79" y="-310.8" font-family="Times,serif" font-size="14.00" fill="#000000">io.ReaderAt (Uncompressed)</text>
</g>
<!-- tar&#45;&gt;ReadSeekerOut -->
<g id="edge3" class="edge">
<title>tar&#45;&gt;ReadSeekerOut</title>
<path fill="none" stroke="#000000" stroke-width="2" d="M223.6653,-405.0945C217.0182,-387.9229 207.0141,-362.0789 199.4227,-342.4679"/>
<polygon fill="#000000" stroke="#000000" stroke-width="2" points="202.6835,-341.1959 195.8095,-333.1337 196.1555,-343.7229 202.6835,-341.1959"/>
<text text-anchor="middle" x="209.54" y="-355.2" font-family="Times,serif" font-size="14.00" fill="#000000"> </text>
</g>
<!-- TOC -->
<g id="node9" class="node">
<title>TOC</title>
<path fill="none" stroke="#000000" d="M215.79,-218.1273C215.79,-219.9331 203.6882,-221.4 188.79,-221.4 173.8918,-221.4 161.79,-219.9331 161.79,-218.1273 161.79,-218.1273 161.79,-188.6727 161.79,-188.6727 161.79,-186.8669 173.8918,-185.4 188.79,-185.4 203.6882,-185.4 215.79,-186.8669 215.79,-188.6727 215.79,-188.6727 215.79,-218.1273 215.79,-218.1273"/>
<path fill="none" stroke="#000000" d="M215.79,-218.1273C215.79,-216.3214 203.6882,-214.8545 188.79,-214.8545 173.8918,-214.8545 161.79,-216.3214 161.79,-218.1273"/>
<text text-anchor="middle" x="188.79" y="-199.2" font-family="Times,serif" font-size="14.00" fill="#000000">TOC</text>
</g>
<!-- ReadSeekerOut&#45;&gt;TOC -->
<g id="edge8" class="edge">
<title>ReadSeekerOut&#45;&gt;TOC</title>
<path fill="none" stroke="#000000" stroke-width="2" d="M188.79,-296.5715C188.79,-287.5835 188.79,-276.2014 188.79,-264.5055"/>
<polygon fill="#000000" stroke="#000000" stroke-width="2" points="192.2901,-264.1988 188.79,-254.1989 185.2901,-264.1989 192.2901,-264.1988"/>
<text text-anchor="middle" x="190.54" y="-266.4" font-family="Times,serif" font-size="14.00" fill="#000000"> </text>
</g>
<!-- methods -->
<g id="node8" class="node">
<title>methods</title>
<polygon fill="none" stroke="#000000" points="117.4085,-386.3 117.4085,-460.7 176.1715,-460.7 176.1715,-386.3 117.4085,-386.3"/>
<text text-anchor="middle" x="146.79" y="-444.1" font-family="Times,serif" font-size="14.00" fill="#000000">ReadAt</text>
<polyline fill="none" stroke="#000000" points="117.4085,-435.9 176.1715,-435.9 "/>
<text text-anchor="middle" x="146.79" y="-419.3" font-family="Times,serif" font-size="14.00" fill="#000000">Encode</text>
<polyline fill="none" stroke="#000000" points="117.4085,-411.1 176.1715,-411.1 "/>
<text text-anchor="middle" x="146.79" y="-394.5" font-family="Times,serif" font-size="14.00" fill="#000000">Decode</text>
</g>
<!-- checkpoints&#45;&gt;methods -->
<!-- methods&#45;&gt;ReadSeekerOut -->
<g id="edge6" class="edge">
<title>methods&#45;&gt;ReadSeekerOut</title>
<path fill="none" stroke="#000000" stroke-width="2" d="M164.4801,-377.8005C169.0992,-365.8679 173.9375,-353.3691 178.0704,-342.6922"/>
<polygon fill="#000000" stroke="#000000" stroke-width="2" points="181.3949,-343.7993 181.7409,-333.2101 174.8669,-341.2723 181.3949,-343.7993"/>
</g>
<!-- tarfs_methods -->
<g id="node10" class="node">
<title>tarfs_methods</title>
<polygon fill="none" stroke="#000000" points="159.4148,-73.5 159.4148,-147.9 218.1652,-147.9 218.1652,-73.5 159.4148,-73.5"/>
<text text-anchor="middle" x="188.79" y="-131.3" font-family="Times,serif" font-size="14.00" fill="#000000">Open</text>
<polyline fill="none" stroke="#000000" points="159.4148,-123.1 218.1652,-123.1 "/>
<text text-anchor="middle" x="188.79" y="-106.5" font-family="Times,serif" font-size="14.00" fill="#000000">Encode</text>
<polyline fill="none" stroke="#000000" points="159.4148,-98.3 218.1652,-98.3 "/>
<text text-anchor="middle" x="188.79" y="-81.7" font-family="Times,serif" font-size="14.00" fill="#000000">Decode</text>
</g>
<!-- TOC&#45;&gt;tarfs_methods -->
<!-- FS -->
<g id="node11" class="node">
<title>FS</title>
<ellipse fill="none" stroke="#000000" cx="188.79" cy="-18" rx="31.3162" ry="18"/>
<text text-anchor="middle" x="188.79" y="-13.8" font-family="Times,serif" font-size="14.00" fill="#000000">fs.FS</text>
</g>
<!-- tarfs_methods&#45;&gt;FS -->
<g id="edge9" class="edge">
<title>tarfs_methods&#45;&gt;FS</title>
<path fill="none" stroke="#000000" stroke-width="2" d="M188.79,-65.004C188.79,-58.6481 188.79,-52.2758 188.79,-46.3653"/>
<polygon fill="#000000" stroke="#000000" stroke-width="2" points="192.2901,-46.2324 188.79,-36.2324 185.2901,-46.2325 192.2901,-46.2324"/>
</g>
</g>
</svg>
